<mxfile host="app.diagrams.net" modified="2021-01-03T15:49:20.753Z" agent="5.0 (Windows NT 10.0; Win64; x64) AppleWebKit/537.36 (KHTML, like Gecko) Chrome/87.0.4280.88 Safari/537.36" etag="y-AW5I2VOoFk_cEwWNSx" version="14.1.8" type="github">
  <diagram id="R2lEEEUBdFMjLlhIrx00" name="Page-1">
    <mxGraphModel dx="882" dy="548" grid="1" gridSize="10" guides="1" tooltips="1" connect="1" arrows="1" fold="1" page="1" pageScale="1" pageWidth="850" pageHeight="1100" math="0" shadow="0" extFonts="Permanent Marker^https://fonts.googleapis.com/css?family=Permanent+Marker">
      <root>
        <mxCell id="0" />
        <mxCell id="1" parent="0" />
        <mxCell id="z9rYdZH1nNrFQZ5mev6R-1" value="Customer" style="whiteSpace=wrap;html=1;align=center;" vertex="1" parent="1">
          <mxGeometry x="30" y="90" width="100" height="40" as="geometry" />
        </mxCell>
        <mxCell id="z9rYdZH1nNrFQZ5mev6R-2" value="Employee" style="rounded=1;arcSize=10;whiteSpace=wrap;html=1;align=center;" vertex="1" parent="1">
          <mxGeometry x="50" y="360" width="100" height="40" as="geometry" />
        </mxCell>
        <mxCell id="z9rYdZH1nNrFQZ5mev6R-3" value="Food Item" style="rounded=1;arcSize=10;whiteSpace=wrap;html=1;align=center;" vertex="1" parent="1">
          <mxGeometry x="460" y="360" width="100" height="40" as="geometry" />
        </mxCell>
        <mxCell id="z9rYdZH1nNrFQZ5mev6R-4" value="Order" style="rounded=1;arcSize=10;whiteSpace=wrap;html=1;align=center;" vertex="1" parent="1">
          <mxGeometry x="460" y="100" width="100" height="40" as="geometry" />
        </mxCell>
        <mxCell id="z9rYdZH1nNrFQZ5mev6R-5" value="Category" style="whiteSpace=wrap;html=1;align=center;" vertex="1" parent="1">
          <mxGeometry x="560" y="465" width="120" height="45" as="geometry" />
        </mxCell>
        <mxCell id="z9rYdZH1nNrFQZ5mev6R-9" value="Food Name" style="ellipse;whiteSpace=wrap;html=1;align=center;fontStyle=4;" vertex="1" parent="1">
          <mxGeometry x="700" y="250" width="100" height="40" as="geometry" />
        </mxCell>
        <mxCell id="z9rYdZH1nNrFQZ5mev6R-12" value="Category Name" style="ellipse;whiteSpace=wrap;html=1;align=center;fontStyle=4;" vertex="1" parent="1">
          <mxGeometry x="740" y="462.5" width="100" height="50" as="geometry" />
        </mxCell>
        <mxCell id="z9rYdZH1nNrFQZ5mev6R-13" value="Username" style="ellipse;whiteSpace=wrap;html=1;align=center;fontStyle=4;" vertex="1" parent="1">
          <mxGeometry y="452.5" width="100" height="45" as="geometry" />
        </mxCell>
        <mxCell id="z9rYdZH1nNrFQZ5mev6R-15" value="Price" style="ellipse;whiteSpace=wrap;html=1;align=center;" vertex="1" parent="1">
          <mxGeometry x="690" y="310" width="100" height="40" as="geometry" />
        </mxCell>
        <mxCell id="z9rYdZH1nNrFQZ5mev6R-16" value="Category" style="ellipse;whiteSpace=wrap;html=1;align=center;" vertex="1" parent="1">
          <mxGeometry x="700" y="370" width="100" height="40" as="geometry" />
        </mxCell>
        <mxCell id="z9rYdZH1nNrFQZ5mev6R-17" value="Date" style="ellipse;whiteSpace=wrap;html=1;align=center;" vertex="1" parent="1">
          <mxGeometry x="610" y="50" width="100" height="40" as="geometry" />
        </mxCell>
        <mxCell id="z9rYdZH1nNrFQZ5mev6R-18" value="Status" style="ellipse;whiteSpace=wrap;html=1;align=center;" vertex="1" parent="1">
          <mxGeometry x="610" y="110" width="100" height="40" as="geometry" />
        </mxCell>
        <mxCell id="z9rYdZH1nNrFQZ5mev6R-19" value="Password" style="ellipse;whiteSpace=wrap;html=1;align=center;" vertex="1" parent="1">
          <mxGeometry x="100" y="480" width="100" height="40" as="geometry" />
        </mxCell>
        <mxCell id="z9rYdZH1nNrFQZ5mev6R-20" value="Email Id" style="ellipse;whiteSpace=wrap;html=1;align=center;" vertex="1" parent="1">
          <mxGeometry x="210" y="462.5" width="100" height="40" as="geometry" />
        </mxCell>
        <mxCell id="z9rYdZH1nNrFQZ5mev6R-21" value="" style="endArrow=none;html=1;rounded=0;exitX=0.5;exitY=1;exitDx=0;exitDy=0;entryX=0.66;entryY=-0.036;entryDx=0;entryDy=0;entryPerimeter=0;" edge="1" parent="1" source="z9rYdZH1nNrFQZ5mev6R-2" target="z9rYdZH1nNrFQZ5mev6R-13">
          <mxGeometry relative="1" as="geometry">
            <mxPoint x="330" y="320" as="sourcePoint" />
            <mxPoint x="490" y="320" as="targetPoint" />
          </mxGeometry>
        </mxCell>
        <mxCell id="z9rYdZH1nNrFQZ5mev6R-22" value="" style="endArrow=none;html=1;rounded=0;entryX=0.5;entryY=0;entryDx=0;entryDy=0;exitX=0.5;exitY=1;exitDx=0;exitDy=0;" edge="1" parent="1" source="z9rYdZH1nNrFQZ5mev6R-2" target="z9rYdZH1nNrFQZ5mev6R-19">
          <mxGeometry relative="1" as="geometry">
            <mxPoint x="96" y="390" as="sourcePoint" />
            <mxPoint x="160" y="440" as="targetPoint" />
          </mxGeometry>
        </mxCell>
        <mxCell id="z9rYdZH1nNrFQZ5mev6R-23" value="" style="endArrow=none;html=1;rounded=0;entryX=0;entryY=0;entryDx=0;entryDy=0;exitX=0.5;exitY=1;exitDx=0;exitDy=0;" edge="1" parent="1" source="z9rYdZH1nNrFQZ5mev6R-2" target="z9rYdZH1nNrFQZ5mev6R-20">
          <mxGeometry relative="1" as="geometry">
            <mxPoint x="100" y="390" as="sourcePoint" />
            <mxPoint x="106" y="433.38" as="targetPoint" />
          </mxGeometry>
        </mxCell>
        <mxCell id="z9rYdZH1nNrFQZ5mev6R-24" value="Add" style="shape=rhombus;perimeter=rhombusPerimeter;whiteSpace=wrap;html=1;align=center;" vertex="1" parent="1">
          <mxGeometry x="290" y="350" width="120" height="60" as="geometry" />
        </mxCell>
        <mxCell id="z9rYdZH1nNrFQZ5mev6R-25" value="Places" style="shape=rhombus;perimeter=rhombusPerimeter;whiteSpace=wrap;html=1;align=center;" vertex="1" parent="1">
          <mxGeometry x="260" y="90" width="120" height="60" as="geometry" />
        </mxCell>
        <mxCell id="z9rYdZH1nNrFQZ5mev6R-26" value="" style="endArrow=none;html=1;rounded=0;entryX=0;entryY=0.5;entryDx=0;entryDy=0;exitX=1;exitY=0.5;exitDx=0;exitDy=0;" edge="1" parent="1" source="z9rYdZH1nNrFQZ5mev6R-5" target="z9rYdZH1nNrFQZ5mev6R-12">
          <mxGeometry relative="1" as="geometry">
            <mxPoint x="650" y="125" as="sourcePoint" />
            <mxPoint x="630" y="150" as="targetPoint" />
          </mxGeometry>
        </mxCell>
        <mxCell id="z9rYdZH1nNrFQZ5mev6R-27" value="" style="endArrow=none;html=1;rounded=0;entryX=0;entryY=0.5;entryDx=0;entryDy=0;exitX=1;exitY=0.5;exitDx=0;exitDy=0;" edge="1" parent="1" source="z9rYdZH1nNrFQZ5mev6R-4" target="z9rYdZH1nNrFQZ5mev6R-17">
          <mxGeometry relative="1" as="geometry">
            <mxPoint x="690" y="370" as="sourcePoint" />
            <mxPoint x="710" y="135" as="targetPoint" />
          </mxGeometry>
        </mxCell>
        <mxCell id="z9rYdZH1nNrFQZ5mev6R-28" value="" style="endArrow=none;html=1;rounded=0;entryX=0;entryY=0.5;entryDx=0;entryDy=0;exitX=1;exitY=0.5;exitDx=0;exitDy=0;" edge="1" parent="1" source="z9rYdZH1nNrFQZ5mev6R-4" target="z9rYdZH1nNrFQZ5mev6R-18">
          <mxGeometry relative="1" as="geometry">
            <mxPoint x="690" y="380" as="sourcePoint" />
            <mxPoint x="750" y="380" as="targetPoint" />
          </mxGeometry>
        </mxCell>
        <mxCell id="z9rYdZH1nNrFQZ5mev6R-29" value="" style="endArrow=none;html=1;rounded=0;entryX=0;entryY=0.5;entryDx=0;entryDy=0;exitX=1;exitY=0.5;exitDx=0;exitDy=0;" edge="1" parent="1" source="z9rYdZH1nNrFQZ5mev6R-3" target="z9rYdZH1nNrFQZ5mev6R-16">
          <mxGeometry relative="1" as="geometry">
            <mxPoint x="690" y="380" as="sourcePoint" />
            <mxPoint x="760" y="430" as="targetPoint" />
          </mxGeometry>
        </mxCell>
        <mxCell id="z9rYdZH1nNrFQZ5mev6R-30" value="" style="endArrow=none;html=1;rounded=0;entryX=0;entryY=0.5;entryDx=0;entryDy=0;exitX=1;exitY=0.5;exitDx=0;exitDy=0;" edge="1" parent="1" source="z9rYdZH1nNrFQZ5mev6R-3" target="z9rYdZH1nNrFQZ5mev6R-15">
          <mxGeometry relative="1" as="geometry">
            <mxPoint x="700" y="390" as="sourcePoint" />
            <mxPoint x="770" y="440" as="targetPoint" />
          </mxGeometry>
        </mxCell>
        <mxCell id="z9rYdZH1nNrFQZ5mev6R-31" value="" style="endArrow=none;html=1;rounded=0;entryX=0;entryY=0.5;entryDx=0;entryDy=0;exitX=1;exitY=0.5;exitDx=0;exitDy=0;" edge="1" parent="1" source="z9rYdZH1nNrFQZ5mev6R-2" target="z9rYdZH1nNrFQZ5mev6R-24">
          <mxGeometry relative="1" as="geometry">
            <mxPoint x="110" y="400" as="sourcePoint" />
            <mxPoint x="224.64466094067257" y="415.85786437626916" as="targetPoint" />
          </mxGeometry>
        </mxCell>
        <mxCell id="z9rYdZH1nNrFQZ5mev6R-34" value="" style="endArrow=none;html=1;rounded=0;entryX=0;entryY=0.5;entryDx=0;entryDy=0;exitX=1;exitY=0.5;exitDx=0;exitDy=0;" edge="1" parent="1" source="z9rYdZH1nNrFQZ5mev6R-24" target="z9rYdZH1nNrFQZ5mev6R-3">
          <mxGeometry relative="1" as="geometry">
            <mxPoint x="170" y="390" as="sourcePoint" />
            <mxPoint x="350" y="390" as="targetPoint" />
          </mxGeometry>
        </mxCell>
        <mxCell id="z9rYdZH1nNrFQZ5mev6R-36" value="" style="endArrow=none;html=1;rounded=0;entryX=-0.012;entryY=0.685;entryDx=0;entryDy=0;exitX=1;exitY=0.5;exitDx=0;exitDy=0;entryPerimeter=0;" edge="1" parent="1" source="z9rYdZH1nNrFQZ5mev6R-3" target="z9rYdZH1nNrFQZ5mev6R-9">
          <mxGeometry relative="1" as="geometry">
            <mxPoint x="450" y="245" as="sourcePoint" />
            <mxPoint x="500" y="260" as="targetPoint" />
          </mxGeometry>
        </mxCell>
        <mxCell id="z9rYdZH1nNrFQZ5mev6R-38" value="" style="endArrow=none;html=1;rounded=0;entryX=1;entryY=0.75;entryDx=0;entryDy=0;exitX=0;exitY=0.5;exitDx=0;exitDy=0;" edge="1" parent="1" source="z9rYdZH1nNrFQZ5mev6R-25" target="z9rYdZH1nNrFQZ5mev6R-1">
          <mxGeometry relative="1" as="geometry">
            <mxPoint x="580" y="370" as="sourcePoint" />
            <mxPoint x="450" y="370" as="targetPoint" />
          </mxGeometry>
        </mxCell>
        <mxCell id="z9rYdZH1nNrFQZ5mev6R-39" value="" style="endArrow=none;html=1;rounded=0;entryX=0.5;entryY=0;entryDx=0;entryDy=0;exitX=0.5;exitY=1;exitDx=0;exitDy=0;" edge="1" parent="1" source="z9rYdZH1nNrFQZ5mev6R-16" target="z9rYdZH1nNrFQZ5mev6R-5">
          <mxGeometry relative="1" as="geometry">
            <mxPoint x="450" y="245" as="sourcePoint" />
            <mxPoint x="518.4000000000001" y="292" as="targetPoint" />
          </mxGeometry>
        </mxCell>
        <mxCell id="z9rYdZH1nNrFQZ5mev6R-40" value="" style="endArrow=none;html=1;rounded=0;entryX=0;entryY=0.5;entryDx=0;entryDy=0;exitX=1;exitY=0.5;exitDx=0;exitDy=0;" edge="1" parent="1" source="z9rYdZH1nNrFQZ5mev6R-25" target="z9rYdZH1nNrFQZ5mev6R-4">
          <mxGeometry relative="1" as="geometry">
            <mxPoint x="530" y="330" as="sourcePoint" />
            <mxPoint x="640" y="397.5" as="targetPoint" />
          </mxGeometry>
        </mxCell>
        <mxCell id="z9rYdZH1nNrFQZ5mev6R-41" value="Has" style="shape=rhombus;perimeter=rhombusPerimeter;whiteSpace=wrap;html=1;align=center;" vertex="1" parent="1">
          <mxGeometry x="452.5" y="210" width="115" height="40" as="geometry" />
        </mxCell>
        <mxCell id="z9rYdZH1nNrFQZ5mev6R-42" value="" style="endArrow=none;html=1;rounded=0;exitX=0.5;exitY=1;exitDx=0;exitDy=0;" edge="1" parent="1" source="z9rYdZH1nNrFQZ5mev6R-4" target="z9rYdZH1nNrFQZ5mev6R-41">
          <mxGeometry relative="1" as="geometry">
            <mxPoint x="420" y="390" as="sourcePoint" />
            <mxPoint x="470" y="390" as="targetPoint" />
          </mxGeometry>
        </mxCell>
        <mxCell id="z9rYdZH1nNrFQZ5mev6R-43" value="" style="endArrow=none;html=1;rounded=0;exitX=0.5;exitY=1;exitDx=0;exitDy=0;" edge="1" parent="1" source="z9rYdZH1nNrFQZ5mev6R-41">
          <mxGeometry relative="1" as="geometry">
            <mxPoint x="510" y="260" as="sourcePoint" />
            <mxPoint x="510" y="360" as="targetPoint" />
          </mxGeometry>
        </mxCell>
      </root>
    </mxGraphModel>
  </diagram>
</mxfile>
